<svg height="511pt" viewBox="-78 0 511 511.99918" width="511pt" xmlns="http://www.w3.org/2000/svg"><path d="m175.5 149c-8.285156 0-15-6.714844-15-15v-30c0-24.8125 20.183594-45 45-45h59.996094c8.285156 0 15 6.71875 15 15 0 8.285156-6.714844 15-15 15h-59.996094c-8.273438 0-15 6.730469-15 15v30c0 8.285156-6.71875 15-15 15zm0 0" fill="#d2fafa"/><path d="m265.496094 59h-59.996094c-11.519531 0-22.035156 4.355469-30 11.496094v78.503906c8.28125 0 15-6.714844 15-15v-30c0-8.269531 6.726562-15 15-15h59.996094c8.285156 0 15-6.714844 15-15 0-8.28125-6.714844-15-15-15zm0 0" fill="#aaebeb"/><path d="m175.5 512c-96.496094 0-175-78.503906-175-175 0-35.539062 10.597656-69.753906 30.644531-98.949219 19.570313-28.492187 46.792969-50.382812 78.726563-63.3125 1.789062-.722656 3.699218-1.09375 5.628906-1.09375h120c1.929688 0 3.839844.371094 5.628906 1.09375 31.929688 12.929688 59.152344 34.820313 78.722656 63.3125 20.050782 29.195313 30.644532 63.410157 30.644532 98.949219 0 96.496094-78.503906 175-174.996094 175zm0 0" fill="#5a5a6b"/><path d="m350.496094 337c0-35.539062-10.597656-69.753906-30.644532-98.949219-19.570312-28.492187-46.792968-50.382812-78.722656-63.3125-1.789062-.722656-3.699218-1.09375-5.628906-1.09375h-60v338.355469c96.492188 0 174.996094-78.503906 174.996094-175zm0 0" fill="#464655"/><path d="m275.496094 352c-8.28125 0-14.996094-6.714844-14.996094-15 0-46.867188-38.132812-85-85-85-8.285156 0-15-6.714844-15-15 0-8.28125 6.714844-15 15-15 63.410156 0 114.996094 51.589844 114.996094 115 0 8.285156-6.714844 15-15 15zm0 0" fill="#9b9baa"/><g fill="#fae114"><path d="m340.496094 89h-30c-8.28125 0-15-6.714844-15-15 0-8.28125 6.71875-15 15-15h30c8.285156 0 15 6.71875 15 15 0 8.285156-6.714844 15-15 15zm0 0"/><path d="m287.984375 50.003906c-2.546875 0-5.125-.648437-7.488281-2.011718-7.171875-4.140626-9.632813-13.316407-5.488282-20.488282l11.546876-20c4.140624-7.175781 13.316406-9.632812 20.488281-5.492187 7.175781 4.144531 9.636719 13.316406 5.492187 20.492187l-11.546875 20c-2.78125 4.808594-7.820312 7.5-13.003906 7.5zm0 0"/><path d="m299.558594 148.003906c-5.183594 0-10.226563-2.691406-13.003906-7.5l-11.546876-20c-4.144531-7.175781-1.6875-16.347656 5.488282-20.492187 7.175781-4.140625 16.347656-1.683594 20.492187 5.492187l11.546875 20c4.140625 7.171875 1.683594 16.347656-5.492187 20.488282-2.359375 1.363281-4.941407 2.011718-7.484375 2.011718zm0 0"/></g><path d="m260.5 337c0 8.285156 6.714844 15 14.996094 15 8.285156 0 15-6.714844 15-15 0-63.410156-51.585938-115-114.996094-115v30c46.867188 0 85 38.132812 85 85zm0 0" fill="#79798c"/><path d="m250.5 134c0-8.28125-6.71875-15-15-15h-120c-8.285156 0-15 6.71875-15 15v44.886719h150zm0 0" fill="#464655"/><path d="m235.5 119h-60v59.886719h75v-44.886719c0-8.28125-6.71875-15-15-15zm0 0" fill="#343446"/></svg>